<?xml version="1.0" standalone="no"?>
<!DOCTYPE svg PUBLIC "-//W3C//DTD SVG 20010904//EN"
 "http://www.w3.org/TR/2001/REC-SVG-20010904/DTD/svg10.dtd">
<svg version="1.0" xmlns="http://www.w3.org/2000/svg"
 width="300.000000pt" height="300.000000pt" viewBox="0 0 300.000000 300.000000"
 preserveAspectRatio="xMidYMid meet">
<metadata>
Created by potrace 1.10, written by Peter Selinger 2001-2011
</metadata>
<g transform="translate(0.000000,300.000000) scale(0.100000,-0.100000)"
fill="#000000" stroke="none">
<path d="M1189 2975 c-3 -2 -23 -7 -44 -9 -162 -21 -350 -145 -451 -298 -41
-62 -104 -210 -104 -244 0 -6 18 -16 40 -23 44 -13 65 -41 56 -77 -8 -29 -50
-42 -79 -25 -39 25 -114 41 -193 41 -155 0 -284 -76 -365 -215 -16 -27 -29
-61 -28 -75 0 -19 6 -12 28 32 15 31 49 81 75 112 101 118 287 163 439 106 65
-25 99 -25 120 -2 34 37 18 80 -47 126 -19 13 -19 17 -6 71 7 31 26 77 42 101
15 25 28 49 28 55 0 6 42 52 93 103 113 112 171 145 327 187 110 29 281 16
386 -30 l46 -21 -26 -44 c-34 -59 -35 -110 -1 -132 39 -25 69 -11 127 61 71
89 141 125 243 125 79 0 118 -13 182 -59 45 -33 98 -113 90 -135 -3 -7 -22
-17 -42 -20 -66 -13 -104 -76 -71 -118 20 -28 29 -21 10 7 -23 35 -6 73 36 82
17 3 33 10 36 14 3 5 18 9 35 9 18 0 29 5 29 14 0 19 -48 107 -73 134 -46 50
-164 102 -233 102 -86 0 -201 -61 -254 -136 -60 -85 -65 -89 -94 -76 -39 17
-42 52 -10 103 15 24 33 48 40 52 8 4 14 12 14 16 0 14 -98 51 -188 71 -80 18
-202 27 -213 15z"/>
<path d="M2233 2595 c-34 -7 -72 -19 -85 -26 -12 -7 -28 -12 -35 -11 -6 1 -15
-3 -19 -9 -8 -14 15 -10 141 24 100 27 176 28 278 2 151 -38 301 -169 368
-319 116 -263 -2 -597 -256 -721 -77 -38 -177 -67 -200 -59 -8 3 -25 30 -39
59 -39 86 -98 109 -139 53 l-20 -27 23 -63 c43 -120 53 -186 41 -266 -11 -75
-46 -169 -74 -203 -9 -10 -17 -21 -17 -24 0 -19 -95 -93 -158 -123 -72 -35
-84 -37 -189 -40 l-113 -4 -86 42 c-84 41 -184 125 -184 155 0 7 14 28 31 46
38 41 62 85 56 107 -3 12 -5 11 -6 -5 0 -12 -26 -49 -57 -82 l-56 -61 26 -35
c49 -63 101 -106 176 -143 69 -33 84 -37 179 -40 156 -6 253 30 357 133 141
140 181 354 99 534 -14 29 -25 61 -25 71 0 25 25 42 57 38 22 -2 33 -13 55
-58 15 -30 27 -63 27 -73 1 -17 7 -18 54 -14 128 13 251 76 348 178 66 69 109
145 138 244 28 96 25 241 -8 338 -26 78 -105 201 -155 244 -65 55 -76 63 -137
94 -112 56 -263 73 -396 44z"/>
<path d="M1148 2348 c-65 -17 -149 -106 -148 -157 1 -9 10 2 20 24 59 120 240
173 240 70 0 -26 -35 -56 -55 -49 -38 15 -105 -59 -105 -116 0 -35 -30 -89
-66 -118 l-32 -26 38 -37 c36 -35 48 -62 65 -143 8 -39 57 -86 90 -86 41 0 65
-17 65 -47 0 -21 3 -24 12 -15 18 18 -21 65 -63 73 -41 9 -89 60 -89 94 0 30
-41 115 -64 134 -22 19 -20 28 14 71 17 21 30 45 30 53 0 9 5 19 10 22 6 3 10
17 10 30 0 39 21 73 51 84 16 6 42 16 58 22 25 9 51 44 51 68 0 5 -12 20 -26
35 -28 27 -46 30 -106 14z"/>
<path d="M1910 2350 c50 -10 110 -37 110 -49 0 -6 7 -11 15 -11 8 0 15 -7 15
-15 0 -8 4 -15 8 -15 12 0 40 -66 48 -112 6 -38 40 -74 114 -121 50 -33 49
-73 -3 -102 -73 -42 -104 -77 -116 -136 -22 -103 -81 -161 -182 -178 l-54 -9
43 -1 c104 -3 194 77 209 187 6 44 25 66 112 124 22 15 43 39 47 52 7 31 -20
70 -60 87 -44 19 -96 76 -96 105 0 33 -42 113 -77 146 -36 34 -93 58 -135 57
l-33 -1 35 -8z"/>
<path d="M1839 2317 c-18 -40 3 -73 61 -92 54 -18 90 -58 90 -100 1 -27 32
-94 58 -123 l21 -24 -34 -47 c-19 -26 -40 -71 -47 -100 -13 -58 -39 -89 -90
-107 l-33 -12 33 -1 c45 -1 102 53 102 96 0 41 44 125 78 147 l29 19 -43 42
c-40 40 -63 92 -64 140 -1 41 -55 85 -104 85 -24 0 -56 32 -56 57 0 6 7 19 16
27 8 9 11 16 4 16 -6 0 -15 -10 -21 -23z"/>
<path d="M1531 2174 c-11 -15 -22 -48 -26 -82 -4 -31 -10 -73 -15 -92 -11 -47
-23 -176 -16 -169 4 4 27 133 42 243 2 16 9 46 14 67 10 35 14 39 44 39 59 0
62 -14 36 -168 -28 -168 -33 -216 -20 -186 4 12 11 43 15 70 4 27 13 74 19
104 7 30 14 80 15 112 2 48 -1 58 -21 72 -33 23 -64 20 -87 -10z"/>
<path d="M978 2132 c-11 -28 -31 -48 -76 -77 -93 -61 -92 -102 7 -166 54 -35
59 -44 87 -132 14 -45 30 -70 67 -104 27 -25 51 -42 54 -39 4 3 -13 23 -37 43
-45 39 -69 84 -77 143 -6 43 -33 74 -100 112 -28 16 -54 36 -57 45 -9 23 19
60 62 82 47 24 88 68 96 104 9 40 -9 33 -26 -11z"/>
<path d="M1217 2071 c-47 -48 -67 -76 -66 -93 1 -20 2 -20 6 -3 7 28 134 155
155 155 28 0 60 -38 53 -61 -4 -11 -24 -36 -46 -57 l-40 -37 47 -45 c27 -26
42 -36 35 -23 -6 12 -16 25 -21 28 -5 3 -14 15 -20 25 -8 15 -4 26 19 52 41
47 45 70 20 101 -35 46 -66 37 -142 -42z"/>
<path d="M1748 2123 c-29 -35 -28 -51 7 -98 19 -25 35 -47 35 -49 0 -2 -13
-20 -30 -41 -16 -21 -30 -47 -29 -59 0 -19 1 -19 10 4 6 14 27 42 47 63 l37
38 -43 40 c-27 26 -42 49 -42 65 0 13 4 24 9 24 5 0 11 7 15 15 7 20 2 19 -16
-2z"/>
<path d="M1816 2125 c4 -8 10 -12 15 -9 5 3 9 0 9 -6 0 -16 52 -70 68 -70 7 0
11 -4 8 -9 -3 -4 6 -19 21 -32 l26 -24 -15 28 c-15 30 -116 137 -129 137 -5 0
-6 -7 -3 -15z"/>
<path d="M1885 1895 c-39 -41 -68 -75 -65 -75 11 0 119 105 130 128 6 12 9 22
8 22 -2 -1 -35 -34 -73 -75z"/>
<path d="M1200 1895 c50 -54 73 -75 78 -70 6 6 -50 64 -87 92 -34 25 -34 24 9
-22z"/>
<path d="M16 1803 c17 -66 48 -119 107 -177 96 -96 198 -134 332 -123 112 9
131 21 147 86 11 46 18 57 41 65 22 8 31 6 48 -10 20 -20 20 -22 4 -103 -14
-66 -15 -96 -7 -150 21 -140 110 -263 235 -321 63 -30 157 -49 157 -32 0 5
-21 12 -47 15 -141 17 -270 136 -316 293 -15 52 -16 126 -2 227 7 48 5 60 -10
77 -37 41 -108 12 -121 -50 -8 -41 -18 -53 -55 -66 -54 -20 -157 -17 -233 7
-109 34 -195 114 -253 237 -28 58 -37 66 -27 25z"/>
<path d="M1417 1188 c-23 -24 -60 -56 -82 -72 -22 -17 -43 -34 -46 -39 -3 -5
-9 -8 -13 -7 -3 1 -32 -4 -64 -11 -66 -14 -95 -32 -42 -26 97 11 197 68 268
155 19 23 32 42 28 42 -3 0 -25 -19 -49 -42z"/>
<path d="M1957 706 c-71 -26 -107 -78 -107 -154 0 -59 25 -108 70 -138 76 -50
153 -41 214 26 79 87 51 211 -59 261 -47 22 -67 23 -118 5z m106 -20 c69 -29
107 -103 88 -173 -33 -123 -203 -144 -262 -33 -22 41 -24 88 -5 133 17 41 42
63 86 75 49 14 56 14 93 -2z"/>
<path d="M2454 324 c-61 -31 -81 -102 -45 -160 38 -63 128 -70 175 -13 35 41
40 69 23 112 -26 62 -96 90 -153 61z m127 -63 c20 -44 14 -75 -23 -106 -35
-29 -59 -31 -99 -8 -68 40 -59 127 16 159 41 17 85 -2 106 -45z"/>
<path d="M2853 148 c-20 -22 -27 -43 -24 -80 1 -22 36 -58 55 -58 9 0 4 11
-15 29 -26 26 -28 32 -18 60 19 55 77 69 106 25 27 -42 25 -60 -8 -88 -20 -17
-25 -26 -15 -26 51 0 73 85 35 134 -27 35 -86 36 -116 4z"/>
</g>
</svg>
